<?xml version="1.0" encoding="utf-8"?>
<!-- Generator: Adobe Illustrator 16.0.0, SVG Export Plug-In . SVG Version: 6.00 Build 0)  -->
<!DOCTYPE svg PUBLIC "-//W3C//DTD SVG 1.1//EN" "http://www.w3.org/Graphics/SVG/1.1/DTD/svg11.dtd">
<svg version="1.1" xmlns="http://www.w3.org/2000/svg" xmlns:xlink="http://www.w3.org/1999/xlink" x="0px" y="0px"
	 width="440.584px" height="392.592px" viewBox="0 0 440.584 392.592" enable-background="new 0 0 440.584 392.592"
	 xml:space="preserve">
<g id="Layer_2">
</g>
<g id="Layer_1">
	<g>
		<circle fill="#72B5CF" cx="215.843" cy="216.297" r="120.669"/>
		<g>
			<circle fill="#337C98" cx="215.843" cy="211.418" r="43.163"/>
		</g>
	</g>
	<g>
		<g>
			<path fill="#FF2455" d="M18.877,54.135c0.31-0.31,0.637-0.598,0.982-0.862c0.345-0.265,0.709-0.49,1.095-0.675
				c0.385-0.186,0.798-0.33,1.237-0.436c0.439-0.104,0.92-0.157,1.439-0.157c0.841,0,1.586,0.143,2.236,0.428
				c0.649,0.284,1.191,0.685,1.627,1.199c0.436,0.516,0.766,1.131,0.99,1.846s0.338,1.502,0.338,2.362v9.795h-3.705V57.84
				c0-0.939-0.216-1.667-0.646-2.183c-0.431-0.515-1.085-0.772-1.966-0.772c-0.639,0-1.239,0.146-1.799,0.435
				c-0.561,0.291-1.09,0.686-1.59,1.186v11.13h-3.705v-15.39h2.265c0.479,0,0.795,0.225,0.944,0.675L18.877,54.135z"/>
			<path fill="#FF2455" d="M39.142,52.005c1.14,0,2.177,0.185,3.112,0.555s1.734,0.896,2.4,1.575c0.664,0.68,1.178,1.51,1.537,2.49
				c0.359,0.979,0.54,2.075,0.54,3.285c0,1.22-0.181,2.319-0.54,3.3c-0.359,0.979-0.873,1.814-1.537,2.505
				c-0.666,0.689-1.465,1.22-2.4,1.59s-1.973,0.555-3.112,0.555c-1.15,0-2.195-0.185-3.136-0.555c-0.939-0.37-1.742-0.9-2.406-1.59
				c-0.666-0.69-1.181-1.525-1.545-2.505c-0.365-0.98-0.549-2.08-0.549-3.3c0-1.21,0.184-2.306,0.549-3.285
				c0.364-0.98,0.879-1.811,1.545-2.49c0.664-0.68,1.467-1.205,2.406-1.575C36.946,52.189,37.991,52.005,39.142,52.005z
				 M39.142,65.01c1.28,0,2.228-0.43,2.843-1.29s0.922-2.12,0.922-3.78c0-1.659-0.307-2.925-0.922-3.795s-1.563-1.305-2.843-1.305
				c-1.3,0-2.263,0.438-2.888,1.313s-0.938,2.138-0.938,3.787c0,1.65,0.313,2.908,0.938,3.772
				C36.879,64.577,37.842,65.01,39.142,65.01z"/>
			<path fill="#FF2455" d="M54.396,67.875c-1.34,0-2.367-0.378-3.082-1.133s-1.072-1.797-1.072-3.127V55.02h-1.576
				c-0.199,0-0.369-0.064-0.51-0.194c-0.14-0.13-0.21-0.325-0.21-0.585V52.77l2.476-0.404l0.779-4.2
				c0.051-0.2,0.145-0.355,0.285-0.465c0.141-0.11,0.32-0.165,0.54-0.165h1.92v4.845h4.11v2.64h-4.11v8.34
				c0,0.48,0.118,0.855,0.353,1.125c0.234,0.271,0.558,0.405,0.968,0.405c0.229,0,0.423-0.027,0.577-0.082
				c0.155-0.056,0.29-0.113,0.405-0.173c0.114-0.06,0.218-0.117,0.308-0.173c0.09-0.055,0.18-0.082,0.27-0.082
				c0.11,0,0.2,0.027,0.271,0.082c0.069,0.056,0.145,0.138,0.225,0.248l1.11,1.8c-0.54,0.45-1.16,0.79-1.86,1.02
				C55.871,67.76,55.146,67.875,54.396,67.875z"/>
			<path fill="#FF2455" d="M63.156,60.404c0.061,0.791,0.199,1.473,0.42,2.048c0.22,0.575,0.51,1.05,0.87,1.425
				s0.787,0.655,1.282,0.84c0.495,0.186,1.043,0.278,1.643,0.278s1.117-0.07,1.553-0.21c0.435-0.141,0.814-0.295,1.14-0.466
				c0.325-0.17,0.61-0.324,0.854-0.465c0.246-0.14,0.482-0.21,0.713-0.21c0.311,0,0.54,0.115,0.69,0.346l1.065,1.35
				c-0.41,0.479-0.871,0.883-1.381,1.207c-0.51,0.325-1.043,0.585-1.598,0.78s-1.119,0.332-1.695,0.413
				c-0.574,0.079-1.132,0.119-1.672,0.119c-1.07,0-2.064-0.178-2.984-0.532c-0.921-0.354-1.721-0.88-2.4-1.575
				c-0.68-0.694-1.215-1.555-1.605-2.58c-0.39-1.024-0.584-2.212-0.584-3.563c0-1.05,0.17-2.037,0.51-2.962s0.826-1.73,1.462-2.415
				s1.41-1.228,2.325-1.628c0.915-0.399,1.947-0.6,3.098-0.6c0.97,0,1.865,0.155,2.685,0.465c0.819,0.311,1.524,0.763,2.115,1.357
				c0.59,0.595,1.052,1.325,1.388,2.19c0.334,0.865,0.502,1.853,0.502,2.962c0,0.561-0.06,0.938-0.18,1.133s-0.35,0.292-0.689,0.292
				H63.156z M70.221,58.17c0-0.48-0.066-0.933-0.202-1.357c-0.135-0.425-0.337-0.798-0.607-1.118
				c-0.271-0.319-0.612-0.572-1.027-0.757c-0.415-0.186-0.897-0.277-1.448-0.277c-1.07,0-1.912,0.305-2.527,0.915
				c-0.615,0.609-1.008,1.475-1.178,2.595H70.221z"/>
			<path fill="#FF2455" d="M80.031,54.135c0.619-0.65,1.307-1.167,2.063-1.553c0.755-0.385,1.617-0.577,2.588-0.577
				c0.889,0,1.691,0.175,2.406,0.524c0.715,0.351,1.326,0.854,1.83,1.508c0.506,0.655,0.893,1.447,1.163,2.378
				c0.271,0.93,0.405,1.975,0.405,3.135c0,1.25-0.155,2.385-0.465,3.405c-0.311,1.02-0.753,1.893-1.328,2.617
				c-0.574,0.726-1.268,1.288-2.077,1.688s-1.71,0.6-2.7,0.6c-0.48,0-0.915-0.047-1.305-0.143c-0.391-0.095-0.75-0.227-1.08-0.397
				c-0.33-0.17-0.633-0.377-0.908-0.622c-0.274-0.245-0.537-0.518-0.787-0.817l-0.165,1.035c-0.06,0.26-0.163,0.444-0.308,0.555
				s-0.342,0.165-0.592,0.165h-2.445v-22.29h3.705V54.135z M80.031,63.645c0.42,0.51,0.877,0.87,1.373,1.08
				c0.494,0.21,1.017,0.315,1.566,0.315c0.57,0,1.082-0.103,1.538-0.308c0.454-0.205,0.843-0.525,1.162-0.96
				c0.32-0.436,0.565-0.99,0.735-1.665s0.255-1.482,0.255-2.423c0-1.689-0.28-2.912-0.84-3.667
				c-0.561-0.755-1.365-1.133-2.415-1.133c-0.711,0-1.33,0.163-1.86,0.487c-0.53,0.325-1.034,0.783-1.515,1.373V63.645z"/>
			<path fill="#FF2455" d="M100.161,52.005c1.14,0,2.177,0.185,3.112,0.555s1.734,0.896,2.4,1.575c0.664,0.68,1.178,1.51,1.537,2.49
				c0.359,0.979,0.54,2.075,0.54,3.285c0,1.22-0.181,2.319-0.54,3.3c-0.359,0.979-0.873,1.814-1.537,2.505
				c-0.666,0.689-1.465,1.22-2.4,1.59s-1.973,0.555-3.112,0.555c-1.15,0-2.195-0.185-3.136-0.555c-0.939-0.37-1.742-0.9-2.406-1.59
				c-0.666-0.69-1.181-1.525-1.545-2.505c-0.365-0.98-0.549-2.08-0.549-3.3c0-1.21,0.184-2.306,0.549-3.285
				c0.364-0.98,0.879-1.811,1.545-2.49c0.664-0.68,1.467-1.205,2.406-1.575C97.966,52.189,99.011,52.005,100.161,52.005z
				 M100.161,65.01c1.28,0,2.228-0.43,2.843-1.29s0.922-2.12,0.922-3.78c0-1.659-0.307-2.925-0.922-3.795s-1.563-1.305-2.843-1.305
				c-1.3,0-2.263,0.438-2.888,1.313s-0.938,2.138-0.938,3.787c0,1.65,0.313,2.908,0.938,3.772
				C97.898,64.577,98.861,65.01,100.161,65.01z"/>
			<path fill="#FF2455" d="M117.396,52.005c1.139,0,2.177,0.185,3.111,0.555c0.936,0.37,1.735,0.896,2.4,1.575
				s1.178,1.51,1.537,2.49c0.36,0.979,0.541,2.075,0.541,3.285c0,1.22-0.181,2.319-0.541,3.3c-0.359,0.979-0.872,1.814-1.537,2.505
				c-0.665,0.689-1.465,1.22-2.4,1.59c-0.935,0.37-1.973,0.555-3.111,0.555c-1.15,0-2.195-0.185-3.136-0.555s-1.743-0.9-2.407-1.59
				c-0.666-0.69-1.18-1.525-1.545-2.505c-0.365-0.98-0.548-2.08-0.548-3.3c0-1.21,0.183-2.306,0.548-3.285
				c0.365-0.98,0.879-1.811,1.545-2.49c0.664-0.68,1.467-1.205,2.407-1.575S116.246,52.005,117.396,52.005z M117.396,65.01
				c1.279,0,2.227-0.43,2.842-1.29s0.922-2.12,0.922-3.78c0-1.659-0.307-2.925-0.922-3.795s-1.563-1.305-2.842-1.305
				c-1.301,0-2.264,0.438-2.889,1.313s-0.938,2.138-0.938,3.787c0,1.65,0.313,2.908,0.938,3.772
				C115.133,64.577,116.096,65.01,117.396,65.01z"/>
			<path fill="#FF2455" d="M131.525,45.345v12.765h0.689c0.25,0,0.447-0.032,0.593-0.097c0.146-0.065,0.292-0.198,0.442-0.397
				l3.825-4.726c0.159-0.21,0.337-0.37,0.532-0.479c0.195-0.11,0.447-0.165,0.758-0.165h3.391l-4.785,5.715
				c-0.34,0.45-0.711,0.795-1.11,1.035c0.21,0.149,0.397,0.325,0.563,0.524c0.165,0.2,0.322,0.415,0.472,0.646l5.131,7.47h-3.346
				c-0.289,0-0.539-0.047-0.75-0.143c-0.209-0.095-0.385-0.268-0.524-0.518l-3.931-5.835c-0.14-0.229-0.284-0.38-0.435-0.45
				c-0.149-0.069-0.375-0.104-0.675-0.104h-0.84v7.05h-3.705v-22.29H131.525z"/>
			<path fill="#FF2455" d="M154.925,69.645v2.4h-11.819v-2.4H154.925z"/>
			<path fill="#FF2455" d="M171.215,45.345v22.29h-2.266c-0.49,0-0.8-0.225-0.93-0.675l-0.314-1.485
				c-0.621,0.71-1.333,1.285-2.139,1.726c-0.805,0.439-1.742,0.659-2.813,0.659c-0.84,0-1.609-0.175-2.31-0.524
				c-0.7-0.351-1.302-0.857-1.808-1.522c-0.505-0.665-0.895-1.487-1.17-2.468c-0.275-0.979-0.412-2.1-0.412-3.36
				c0-1.14,0.154-2.199,0.465-3.18c0.311-0.979,0.755-1.83,1.335-2.55s1.274-1.282,2.085-1.688s1.72-0.607,2.73-0.607
				c0.859,0,1.595,0.135,2.205,0.405c0.609,0.27,1.154,0.635,1.635,1.095v-8.115H171.215z M167.51,56.175
				c-0.42-0.51-0.878-0.87-1.373-1.08c-0.494-0.21-1.027-0.315-1.598-0.315c-0.56,0-1.064,0.105-1.515,0.315
				s-0.835,0.527-1.155,0.952c-0.32,0.426-0.564,0.966-0.734,1.62c-0.17,0.655-0.256,1.428-0.256,2.317
				c0,0.9,0.073,1.663,0.219,2.288c0.145,0.625,0.352,1.135,0.622,1.53c0.271,0.395,0.6,0.68,0.989,0.854
				c0.391,0.175,0.826,0.263,1.306,0.263c0.771,0,1.425-0.16,1.965-0.48c0.54-0.319,1.05-0.774,1.53-1.364V56.175z"/>
			<path fill="#FF2455" d="M177.725,60.404c0.061,0.791,0.199,1.473,0.42,2.048c0.22,0.575,0.51,1.05,0.87,1.425
				s0.787,0.655,1.282,0.84c0.495,0.186,1.043,0.278,1.643,0.278s1.117-0.07,1.553-0.21c0.435-0.141,0.814-0.295,1.14-0.466
				c0.325-0.17,0.61-0.324,0.854-0.465c0.246-0.14,0.482-0.21,0.713-0.21c0.311,0,0.54,0.115,0.69,0.346l1.065,1.35
				c-0.41,0.479-0.871,0.883-1.381,1.207c-0.51,0.325-1.043,0.585-1.598,0.78s-1.119,0.332-1.695,0.413
				c-0.574,0.079-1.132,0.119-1.672,0.119c-1.07,0-2.064-0.178-2.984-0.532c-0.921-0.354-1.721-0.88-2.4-1.575
				c-0.68-0.694-1.215-1.555-1.605-2.58c-0.39-1.024-0.584-2.212-0.584-3.563c0-1.05,0.17-2.037,0.51-2.962s0.826-1.73,1.462-2.415
				s1.41-1.228,2.325-1.628c0.915-0.399,1.947-0.6,3.098-0.6c0.97,0,1.865,0.155,2.685,0.465c0.819,0.311,1.524,0.763,2.115,1.357
				c0.59,0.595,1.052,1.325,1.388,2.19c0.334,0.865,0.502,1.853,0.502,2.962c0,0.561-0.06,0.938-0.18,1.133s-0.35,0.292-0.689,0.292
				H177.725z M184.789,58.17c0-0.48-0.066-0.933-0.202-1.357c-0.135-0.425-0.337-0.798-0.607-1.118
				c-0.271-0.319-0.612-0.572-1.027-0.757c-0.415-0.186-0.897-0.277-1.448-0.277c-1.07,0-1.912,0.305-2.527,0.915
				c-0.615,0.609-1.008,1.475-1.178,2.595H184.789z"/>
			<path fill="#FF2455" d="M201.965,69.645v2.4h-11.82v-2.4H201.965z"/>
			<path fill="#FF2455" d="M208.385,54.915c0.479-0.92,1.049-1.643,1.709-2.168c0.66-0.524,1.44-0.787,2.34-0.787
				c0.711,0,1.28,0.155,1.711,0.465l-0.24,2.775c-0.051,0.18-0.123,0.307-0.218,0.382s-0.223,0.112-0.382,0.112
				c-0.15,0-0.373-0.024-0.668-0.074s-0.583-0.075-0.863-0.075c-0.41,0-0.774,0.06-1.094,0.18c-0.32,0.12-0.607,0.293-0.863,0.518
				c-0.255,0.225-0.48,0.498-0.675,0.817c-0.194,0.32-0.378,0.686-0.548,1.095v9.48h-3.705v-15.39h2.176
				c0.379,0,0.645,0.067,0.795,0.202s0.25,0.378,0.3,0.728L208.385,54.915z"/>
			<path fill="#FF2455" d="M222.454,52.005c1.14,0,2.177,0.185,3.112,0.555s1.734,0.896,2.4,1.575c0.664,0.68,1.178,1.51,1.537,2.49
				c0.359,0.979,0.54,2.075,0.54,3.285c0,1.22-0.181,2.319-0.54,3.3c-0.359,0.979-0.873,1.814-1.537,2.505
				c-0.666,0.689-1.465,1.22-2.4,1.59s-1.973,0.555-3.112,0.555c-1.15,0-2.195-0.185-3.136-0.555c-0.939-0.37-1.742-0.9-2.406-1.59
				c-0.666-0.69-1.181-1.525-1.545-2.505c-0.365-0.98-0.549-2.08-0.549-3.3c0-1.21,0.184-2.306,0.549-3.285
				c0.364-0.98,0.879-1.811,1.545-2.49c0.664-0.68,1.467-1.205,2.406-1.575C220.259,52.189,221.304,52.005,222.454,52.005z
				 M222.454,65.01c1.28,0,2.228-0.43,2.843-1.29s0.922-2.12,0.922-3.78c0-1.659-0.307-2.925-0.922-3.795s-1.563-1.305-2.843-1.305
				c-1.3,0-2.263,0.438-2.888,1.313s-0.938,2.138-0.938,3.787c0,1.65,0.313,2.908,0.938,3.772
				C220.191,64.577,221.154,65.01,222.454,65.01z"/>
		</g>
	</g>
	<g>
		
			<line fill="none" stroke="#337C98" stroke-width="10" stroke-linecap="round" stroke-linejoin="round" stroke-miterlimit="10" x1="168.82" y1="150.602" x2="114.378" y2="96.467"/>
		
			<polyline fill="none" stroke="#337C98" stroke-width="10" stroke-linecap="round" stroke-linejoin="round" stroke-miterlimit="10" points="
			172.365,138.11 172.964,154.717 156.356,154.246 		"/>
	</g>
</g>
</svg>
