<?xml version="1.0" encoding="utf-8"?>
<!-- Generator: Adobe Illustrator 16.0.0, SVG Export Plug-In . SVG Version: 6.00 Build 0)  -->
<!DOCTYPE svg PUBLIC "-//W3C//DTD SVG 1.1//EN" "http://www.w3.org/Graphics/SVG/1.1/DTD/svg11.dtd">
<svg version="1.1" xmlns="http://www.w3.org/2000/svg" xmlns:xlink="http://www.w3.org/1999/xlink" x="0px" y="0px"
	 width="440.584px" height="392.592px" viewBox="0 0 440.584 392.592" enable-background="new 0 0 440.584 392.592"
	 xml:space="preserve">
<g id="Layer_2">
</g>
<g id="Layer_1">
	<g>
		<circle fill="#72B5CF" cx="215.843" cy="216.297" r="120.669"/>
		<g>
			<circle fill="#337C98" cx="215.843" cy="211.418" r="43.163"/>
		</g>
	</g>
	<g>
		<g>
			<path fill="#FF2455" d="M44.879,55.5c-0.11,0.14-0.217,0.25-0.322,0.33s-0.258,0.12-0.457,0.12c-0.191,0-0.375-0.058-0.556-0.173
				s-0.396-0.245-0.646-0.39c-0.25-0.146-0.547-0.275-0.893-0.391c-0.344-0.114-0.771-0.172-1.281-0.172
				c-0.65,0-1.221,0.117-1.711,0.353c-0.49,0.234-0.897,0.572-1.223,1.012c-0.324,0.44-0.567,0.973-0.727,1.598
				c-0.16,0.625-0.24,1.333-0.24,2.123c0,0.819,0.087,1.55,0.262,2.189c0.176,0.641,0.428,1.178,0.758,1.612
				c0.33,0.436,0.73,0.766,1.2,0.99c0.47,0.226,1,0.338,1.59,0.338s1.067-0.072,1.433-0.218c0.365-0.145,0.672-0.305,0.922-0.48
				c0.25-0.175,0.468-0.334,0.653-0.479c0.185-0.145,0.392-0.218,0.622-0.218c0.301,0,0.525,0.115,0.676,0.346l1.064,1.35
				c-0.41,0.479-0.855,0.883-1.335,1.207c-0.479,0.325-0.978,0.585-1.493,0.78c-0.515,0.195-1.045,0.332-1.59,0.413
				c-0.545,0.079-1.087,0.119-1.627,0.119c-0.95,0-1.846-0.178-2.686-0.532s-1.574-0.872-2.205-1.553
				c-0.629-0.68-1.127-1.512-1.492-2.497s-0.547-2.107-0.547-3.367c0-1.13,0.162-2.178,0.487-3.143s0.802-1.801,1.433-2.505
				c0.63-0.705,1.41-1.258,2.34-1.658c0.93-0.399,2-0.6,3.21-0.6c1.149,0,2.157,0.185,3.022,0.555s1.643,0.9,2.332,1.59L44.879,55.5
				z"/>
			<path fill="#FF2455" d="M50.895,60.404c0.061,0.791,0.199,1.473,0.42,2.048c0.22,0.575,0.51,1.05,0.87,1.425
				s0.787,0.655,1.282,0.84c0.495,0.186,1.043,0.278,1.643,0.278s1.117-0.07,1.553-0.21c0.435-0.141,0.814-0.295,1.14-0.466
				c0.325-0.17,0.61-0.324,0.854-0.465c0.246-0.14,0.482-0.21,0.713-0.21c0.311,0,0.54,0.115,0.69,0.346l1.065,1.35
				c-0.41,0.479-0.871,0.883-1.381,1.207c-0.51,0.325-1.043,0.585-1.598,0.78s-1.119,0.332-1.695,0.413
				c-0.574,0.079-1.132,0.119-1.672,0.119c-1.07,0-2.064-0.178-2.984-0.532c-0.921-0.354-1.721-0.88-2.4-1.575
				c-0.68-0.694-1.215-1.555-1.605-2.58c-0.39-1.024-0.584-2.212-0.584-3.563c0-1.05,0.17-2.037,0.51-2.962s0.826-1.73,1.462-2.415
				s1.41-1.228,2.325-1.628c0.915-0.399,1.947-0.6,3.098-0.6c0.97,0,1.865,0.155,2.685,0.465c0.819,0.311,1.524,0.763,2.115,1.357
				c0.59,0.595,1.052,1.325,1.388,2.19c0.334,0.865,0.502,1.853,0.502,2.962c0,0.561-0.06,0.938-0.18,1.133s-0.35,0.292-0.689,0.292
				H50.895z M57.959,58.17c0-0.48-0.066-0.933-0.202-1.357c-0.135-0.425-0.337-0.798-0.607-1.118
				c-0.271-0.319-0.612-0.572-1.027-0.757c-0.415-0.186-0.897-0.277-1.448-0.277c-1.07,0-1.912,0.305-2.527,0.915
				c-0.615,0.609-1.008,1.475-1.178,2.595H57.959z"/>
			<path fill="#FF2455" d="M67.814,45.345v22.29h-3.705v-22.29H67.814z"/>
			<path fill="#FF2455" d="M84.779,52.245v15.39h-2.266c-0.49,0-0.8-0.225-0.93-0.675l-0.255-1.23
				c-0.63,0.641-1.325,1.158-2.085,1.553s-1.655,0.593-2.686,0.593c-0.84,0-1.582-0.143-2.227-0.428
				c-0.646-0.285-1.188-0.688-1.628-1.207c-0.44-0.521-0.772-1.138-0.997-1.853c-0.226-0.715-0.338-1.503-0.338-2.363v-9.779h3.705
				v9.779c0,0.94,0.217,1.668,0.652,2.183c0.436,0.516,1.088,0.772,1.957,0.772c0.641,0,1.24-0.143,1.801-0.427
				c0.56-0.285,1.09-0.678,1.59-1.178v-11.13H84.779z"/>
			<path fill="#FF2455" d="M92.188,45.345v22.29h-3.705v-22.29H92.188z"/>
			<path fill="#FF2455" d="M95.533,54.39c1.771-1.62,3.9-2.43,6.391-2.43c0.899,0,1.705,0.147,2.414,0.442
				c0.711,0.295,1.311,0.705,1.801,1.229c0.49,0.525,0.862,1.153,1.117,1.883c0.255,0.73,0.383,1.53,0.383,2.4v9.72h-1.68
				c-0.351,0-0.621-0.053-0.811-0.157c-0.189-0.105-0.34-0.317-0.45-0.638l-0.329-1.11c-0.391,0.351-0.771,0.658-1.141,0.923
				c-0.37,0.265-0.756,0.487-1.155,0.667c-0.399,0.181-0.827,0.317-1.282,0.413c-0.455,0.095-0.957,0.143-1.508,0.143
				c-0.65,0-1.25-0.088-1.8-0.263s-1.024-0.438-1.425-0.787c-0.4-0.351-0.711-0.785-0.93-1.306c-0.221-0.52-0.33-1.125-0.33-1.814
				c0-0.391,0.064-0.777,0.195-1.163c0.129-0.385,0.342-0.752,0.637-1.103c0.295-0.35,0.678-0.68,1.147-0.989
				c0.47-0.311,1.048-0.58,1.732-0.811c0.685-0.229,1.482-0.417,2.393-0.563c0.91-0.145,1.95-0.232,3.12-0.263v-0.899
				c0-1.03-0.221-1.793-0.66-2.288s-1.074-0.742-1.904-0.742c-0.601,0-1.098,0.07-1.493,0.21c-0.396,0.141-0.742,0.298-1.042,0.473
				c-0.301,0.175-0.572,0.332-0.818,0.473c-0.244,0.14-0.518,0.21-0.816,0.21c-0.261,0-0.48-0.067-0.66-0.203
				c-0.181-0.135-0.326-0.292-0.436-0.472L95.533,54.39z M104.023,61.064c-1.07,0.051-1.971,0.143-2.7,0.277
				c-0.729,0.136-1.315,0.308-1.755,0.518s-0.755,0.455-0.945,0.735c-0.189,0.28-0.285,0.585-0.285,0.915
				c0,0.65,0.193,1.115,0.578,1.395c0.385,0.28,0.887,0.421,1.508,0.421c0.76,0,1.417-0.138,1.973-0.413
				c0.555-0.274,1.097-0.692,1.627-1.252V61.064z"/>
			<path fill="#FF2455" d="M114.613,54.915c0.48-0.92,1.05-1.643,1.71-2.168c0.659-0.524,1.44-0.787,2.34-0.787
				c0.71,0,1.28,0.155,1.71,0.465l-0.24,2.775c-0.05,0.18-0.122,0.307-0.217,0.382c-0.096,0.075-0.223,0.112-0.383,0.112
				c-0.15,0-0.373-0.024-0.668-0.074s-0.582-0.075-0.862-0.075c-0.41,0-0.774,0.06-1.095,0.18s-0.607,0.293-0.863,0.518
				c-0.254,0.225-0.479,0.498-0.674,0.817c-0.195,0.32-0.378,0.686-0.548,1.095v9.48h-3.705v-15.39h2.175
				c0.38,0,0.645,0.067,0.795,0.202s0.25,0.378,0.301,0.728L114.613,54.915z"/>
			<path fill="#FF2455" d="M133.377,69.645v2.4h-11.819v-2.4H133.377z"/>
			<path fill="#FF2455" d="M149.667,45.345v22.29h-2.265c-0.49,0-0.801-0.225-0.93-0.675l-0.315-1.485
				c-0.62,0.71-1.333,1.285-2.138,1.726c-0.805,0.439-1.742,0.659-2.813,0.659c-0.84,0-1.609-0.175-2.311-0.524
				c-0.699-0.351-1.302-0.857-1.807-1.522c-0.506-0.665-0.895-1.487-1.17-2.468c-0.275-0.979-0.412-2.1-0.412-3.36
				c0-1.14,0.154-2.199,0.465-3.18c0.31-0.979,0.754-1.83,1.334-2.55s1.275-1.282,2.086-1.688c0.81-0.405,1.719-0.607,2.729-0.607
				c0.86,0,1.595,0.135,2.205,0.405c0.61,0.27,1.155,0.635,1.636,1.095v-8.115H149.667z M145.963,56.175
				c-0.421-0.51-0.879-0.87-1.373-1.08c-0.495-0.21-1.027-0.315-1.598-0.315c-0.561,0-1.064,0.105-1.516,0.315
				c-0.449,0.21-0.834,0.527-1.154,0.952c-0.32,0.426-0.564,0.966-0.734,1.62c-0.171,0.655-0.256,1.428-0.256,2.317
				c0,0.9,0.072,1.663,0.218,2.288c0.145,0.625,0.353,1.135,0.622,1.53c0.271,0.395,0.6,0.68,0.99,0.854s0.825,0.263,1.305,0.263
				c0.771,0,1.426-0.16,1.965-0.48c0.541-0.319,1.051-0.774,1.531-1.364V56.175z"/>
			<path fill="#FF2455" d="M156.178,60.404c0.06,0.791,0.199,1.473,0.42,2.048c0.219,0.575,0.51,1.05,0.869,1.425
				c0.36,0.375,0.787,0.655,1.283,0.84c0.494,0.186,1.042,0.278,1.643,0.278c0.6,0,1.117-0.07,1.552-0.21
				c0.435-0.141,0.815-0.295,1.14-0.466c0.325-0.17,0.61-0.324,0.855-0.465c0.245-0.14,0.482-0.21,0.713-0.21
				c0.31,0,0.539,0.115,0.689,0.346l1.065,1.35c-0.41,0.479-0.87,0.883-1.38,1.207c-0.51,0.325-1.043,0.585-1.598,0.78
				s-1.12,0.332-1.695,0.413c-0.575,0.079-1.133,0.119-1.672,0.119c-1.07,0-2.065-0.178-2.985-0.532
				c-0.921-0.354-1.72-0.88-2.399-1.575c-0.681-0.694-1.216-1.555-1.605-2.58c-0.391-1.024-0.585-2.212-0.585-3.563
				c0-1.05,0.17-2.037,0.51-2.962s0.827-1.73,1.462-2.415c0.636-0.685,1.41-1.228,2.326-1.628c0.914-0.399,1.947-0.6,3.097-0.6
				c0.97,0,1.865,0.155,2.685,0.465c0.82,0.311,1.525,0.763,2.115,1.357s1.053,1.325,1.388,2.19s0.503,1.853,0.503,2.962
				c0,0.561-0.061,0.938-0.18,1.133c-0.121,0.195-0.351,0.292-0.69,0.292H156.178z M163.242,58.17c0-0.48-0.067-0.933-0.203-1.357
				c-0.135-0.425-0.337-0.798-0.607-1.118c-0.27-0.319-0.612-0.572-1.027-0.757c-0.415-0.186-0.897-0.277-1.447-0.277
				c-1.07,0-1.912,0.305-2.527,0.915c-0.615,0.609-1.008,1.475-1.178,2.595H163.242z"/>
			<path fill="#FF2455" d="M180.417,69.645v2.4h-11.819v-2.4H180.417z"/>
			<path fill="#FF2455" d="M186.191,60.404c0.061,0.791,0.2,1.473,0.42,2.048c0.221,0.575,0.51,1.05,0.871,1.425
				c0.359,0.375,0.787,0.655,1.281,0.84c0.496,0.186,1.043,0.278,1.643,0.278c0.601,0,1.118-0.07,1.553-0.21
				c0.436-0.141,0.814-0.295,1.141-0.466c0.324-0.17,0.609-0.324,0.854-0.465c0.245-0.14,0.482-0.21,0.712-0.21
				c0.311,0,0.541,0.115,0.691,0.346l1.064,1.35c-0.41,0.479-0.87,0.883-1.381,1.207c-0.51,0.325-1.042,0.585-1.597,0.78
				c-0.556,0.195-1.12,0.332-1.695,0.413c-0.575,0.079-1.132,0.119-1.673,0.119c-1.07,0-2.064-0.178-2.984-0.532
				s-1.721-0.88-2.4-1.575c-0.68-0.694-1.215-1.555-1.604-2.58c-0.39-1.024-0.585-2.212-0.585-3.563c0-1.05,0.17-2.037,0.51-2.962
				s0.827-1.73,1.463-2.415c0.635-0.685,1.41-1.228,2.324-1.628c0.916-0.399,1.947-0.6,3.098-0.6c0.971,0,1.865,0.155,2.686,0.465
				c0.819,0.311,1.524,0.763,2.115,1.357c0.59,0.595,1.052,1.325,1.387,2.19s0.503,1.853,0.503,2.962
				c0,0.561-0.06,0.938-0.181,1.133c-0.119,0.195-0.35,0.292-0.689,0.292H186.191z M193.257,58.17c0-0.48-0.067-0.933-0.202-1.357
				s-0.338-0.798-0.607-1.118c-0.271-0.319-0.613-0.572-1.027-0.757c-0.416-0.186-0.898-0.277-1.448-0.277
				c-1.07,0-1.913,0.305-2.527,0.915c-0.615,0.609-1.008,1.475-1.178,2.595H193.257z"/>
			<path fill="#FF2455" d="M203.111,45.345v22.29h-3.705v-22.29H203.111z"/>
			<path fill="#FF2455" d="M211.166,47.76c0,0.32-0.064,0.62-0.195,0.9c-0.129,0.279-0.302,0.524-0.518,0.734
				c-0.215,0.21-0.467,0.378-0.757,0.503s-0.601,0.188-0.931,0.188c-0.319,0-0.621-0.063-0.906-0.188s-0.533-0.293-0.743-0.503
				s-0.378-0.455-0.503-0.734c-0.125-0.28-0.188-0.58-0.188-0.9c0-0.33,0.063-0.64,0.188-0.93s0.293-0.54,0.503-0.75
				s0.458-0.378,0.743-0.503s0.587-0.188,0.906-0.188c0.33,0,0.641,0.063,0.931,0.188s0.542,0.293,0.757,0.503
				c0.216,0.21,0.389,0.46,0.518,0.75C211.102,47.12,211.166,47.43,211.166,47.76z M210.656,52.245v15.39h-3.72v-15.39H210.656z"/>
		</g>
	</g>
	<g>
		
			<line fill="none" stroke="#337C98" stroke-width="10" stroke-linecap="round" stroke-linejoin="round" stroke-miterlimit="10" x1="168.82" y1="150.602" x2="114.378" y2="96.467"/>
		
			<polyline fill="none" stroke="#337C98" stroke-width="10" stroke-linecap="round" stroke-linejoin="round" stroke-miterlimit="10" points="
			172.365,138.11 172.964,154.717 156.356,154.246 		"/>
	</g>
</g>
</svg>
