<?xml version="1.0" encoding="utf-8"?>
<!-- Generator: Adobe Illustrator 16.0.0, SVG Export Plug-In . SVG Version: 6.00 Build 0)  -->
<!DOCTYPE svg PUBLIC "-//W3C//DTD SVG 1.1//EN" "http://www.w3.org/Graphics/SVG/1.1/DTD/svg11.dtd">
<svg version="1.1" xmlns="http://www.w3.org/2000/svg" xmlns:xlink="http://www.w3.org/1999/xlink" x="0px" y="0px"
	 width="619.472px" height="672.363px" viewBox="0 0 619.472 672.363" enable-background="new 0 0 619.472 672.363"
	 xml:space="preserve">
<g id="Layer_2">
</g>
<g id="Layer_1">
	<path fill="#72B5CF" d="M523.375,336.18c0-117.986-95.652-213.636-213.639-213.636S96.097,218.193,96.097,336.18
		c0,117.99,95.653,213.639,213.64,213.639S523.375,454.17,523.375,336.18z"/>
	<g>
		<g>
			<path fill="#FF2455" d="M265.044,50.185c0.62-0.65,1.307-1.167,2.063-1.553c0.755-0.385,1.617-0.577,2.587-0.577
				c0.89,0,1.692,0.175,2.407,0.524c0.715,0.351,1.325,0.854,1.83,1.508c0.505,0.655,0.893,1.447,1.163,2.378
				c0.27,0.93,0.405,1.975,0.405,3.135c0,1.25-0.155,2.385-0.465,3.405c-0.31,1.02-0.752,1.893-1.328,2.617
				c-0.575,0.726-1.267,1.288-2.077,1.688s-1.71,0.6-2.7,0.6c-0.48,0-0.915-0.047-1.305-0.143c-0.39-0.095-0.75-0.227-1.08-0.397
				c-0.33-0.17-0.633-0.377-0.908-0.622s-0.538-0.518-0.788-0.817l-0.165,1.035c-0.06,0.26-0.163,0.444-0.307,0.555
				c-0.145,0.11-0.343,0.165-0.593,0.165h-2.445v-22.29h3.705V50.185z M265.044,59.694c0.42,0.51,0.877,0.87,1.373,1.08
				c0.495,0.21,1.017,0.315,1.567,0.315c0.57,0,1.082-0.103,1.538-0.308c0.455-0.205,0.842-0.525,1.162-0.96
				c0.32-0.436,0.565-0.99,0.735-1.665c0.17-0.675,0.255-1.482,0.255-2.423c0-1.689-0.28-2.912-0.84-3.667
				c-0.561-0.755-1.365-1.133-2.415-1.133c-0.71,0-1.33,0.163-1.86,0.487c-0.53,0.325-1.035,0.783-1.515,1.373V59.694z"/>
			<path fill="#FF2455" d="M278.004,50.439c1.77-1.62,3.9-2.43,6.39-2.43c0.899,0,1.705,0.147,2.414,0.442
				c0.711,0.295,1.311,0.705,1.801,1.229c0.49,0.525,0.862,1.153,1.117,1.883c0.255,0.73,0.383,1.53,0.383,2.4v9.72h-1.68
				c-0.351,0-0.621-0.053-0.811-0.157c-0.189-0.105-0.34-0.317-0.45-0.638l-0.329-1.11c-0.391,0.351-0.771,0.658-1.141,0.923
				c-0.37,0.265-0.756,0.487-1.155,0.667c-0.399,0.181-0.827,0.317-1.282,0.413c-0.455,0.095-0.957,0.143-1.508,0.143
				c-0.65,0-1.25-0.088-1.8-0.263s-1.025-0.438-1.425-0.787c-0.4-0.351-0.71-0.785-0.93-1.306c-0.22-0.52-0.33-1.125-0.33-1.814
				c0-0.391,0.065-0.777,0.195-1.163c0.13-0.385,0.342-0.752,0.637-1.103c0.295-0.35,0.677-0.68,1.147-0.989
				c0.47-0.311,1.048-0.58,1.732-0.811c0.685-0.229,1.482-0.417,2.393-0.563c0.91-0.145,1.95-0.232,3.12-0.263v-0.899
				c0-1.03-0.221-1.793-0.66-2.288s-1.074-0.742-1.904-0.742c-0.601,0-1.098,0.07-1.493,0.21c-0.396,0.141-0.742,0.298-1.042,0.473
				c-0.301,0.175-0.572,0.332-0.818,0.473c-0.244,0.14-0.518,0.21-0.817,0.21c-0.26,0-0.48-0.067-0.66-0.203
				c-0.18-0.135-0.325-0.292-0.435-0.472L278.004,50.439z M286.494,57.114c-1.07,0.051-1.971,0.143-2.7,0.277
				c-0.729,0.136-1.315,0.308-1.755,0.518s-0.755,0.455-0.945,0.735c-0.189,0.28-0.285,0.585-0.285,0.915
				c0,0.65,0.193,1.115,0.578,1.395c0.385,0.28,0.887,0.421,1.508,0.421c0.76,0,1.417-0.138,1.973-0.413
				c0.555-0.274,1.097-0.692,1.627-1.252V57.114z"/>
			<path fill="#FF2455" d="M298.509,63.925c-1.341,0-2.368-0.378-3.083-1.133s-1.072-1.797-1.072-3.127v-8.596h-1.574
				c-0.201,0-0.371-0.064-0.51-0.194c-0.141-0.13-0.211-0.325-0.211-0.585v-1.471l2.475-0.404l0.781-4.2
				c0.049-0.2,0.145-0.355,0.284-0.465c0.14-0.11,0.32-0.165,0.54-0.165h1.92v4.845h4.11v2.64h-4.11v8.34
				c0,0.48,0.117,0.855,0.353,1.125c0.235,0.271,0.558,0.405,0.968,0.405c0.23,0,0.422-0.027,0.578-0.082
				c0.154-0.056,0.289-0.113,0.404-0.173s0.217-0.117,0.308-0.173c0.09-0.055,0.18-0.082,0.271-0.082
				c0.109,0,0.199,0.027,0.27,0.082c0.07,0.056,0.145,0.138,0.225,0.248l1.11,1.8c-0.54,0.45-1.16,0.79-1.86,1.02
				C299.984,63.81,299.259,63.925,298.509,63.925z"/>
			<path fill="#FF2455" d="M304.539,63.685v-15.39h2.266c0.479,0,0.795,0.225,0.944,0.675l0.239,1.14
				c0.271-0.3,0.553-0.575,0.848-0.825c0.295-0.249,0.61-0.465,0.945-0.645s0.695-0.322,1.08-0.428
				c0.385-0.104,0.808-0.157,1.268-0.157c0.97,0,1.768,0.263,2.393,0.787c0.625,0.525,1.092,1.223,1.402,2.093
				c0.24-0.51,0.54-0.947,0.9-1.313c0.359-0.365,0.755-0.662,1.185-0.893c0.431-0.229,0.888-0.399,1.372-0.51
				c0.485-0.11,0.973-0.165,1.463-0.165c0.85,0,1.605,0.13,2.266,0.39c0.66,0.261,1.215,0.641,1.664,1.141
				c0.451,0.5,0.793,1.109,1.027,1.83c0.235,0.72,0.354,1.545,0.354,2.475v9.795h-3.705V53.89c0-0.98-0.215-1.718-0.645-2.213
				c-0.431-0.495-1.061-0.742-1.891-0.742c-0.381,0-0.732,0.065-1.058,0.195s-0.61,0.317-0.854,0.563
				c-0.246,0.245-0.438,0.553-0.578,0.922c-0.141,0.37-0.21,0.795-0.21,1.275v9.795h-3.72V53.89c0-1.03-0.208-1.78-0.623-2.25
				c-0.414-0.47-1.021-0.705-1.822-0.705c-0.54,0-1.043,0.133-1.508,0.397s-0.896,0.628-1.297,1.088v11.265H304.539z"/>
			<path fill="#FF2455" d="M329.304,50.439c1.771-1.62,3.899-2.43,6.39-2.43c0.9,0,1.705,0.147,2.415,0.442s1.31,0.705,1.8,1.229
				c0.49,0.525,0.863,1.153,1.117,1.883c0.256,0.73,0.383,1.53,0.383,2.4v9.72h-1.68c-0.35,0-0.62-0.053-0.811-0.157
				c-0.189-0.105-0.34-0.317-0.449-0.638l-0.33-1.11c-0.391,0.351-0.771,0.658-1.141,0.923c-0.369,0.265-0.755,0.487-1.154,0.667
				c-0.4,0.181-0.828,0.317-1.283,0.413c-0.455,0.095-0.957,0.143-1.507,0.143c-0.65,0-1.251-0.088-1.8-0.263
				c-0.551-0.175-1.025-0.438-1.426-0.787c-0.4-0.351-0.71-0.785-0.93-1.306c-0.221-0.52-0.33-1.125-0.33-1.814
				c0-0.391,0.064-0.777,0.195-1.163c0.13-0.385,0.342-0.752,0.637-1.103c0.295-0.35,0.678-0.68,1.148-0.989
				c0.47-0.311,1.047-0.58,1.732-0.811c0.685-0.229,1.482-0.417,2.393-0.563c0.91-0.145,1.949-0.232,3.119-0.263v-0.899
				c0-1.03-0.22-1.793-0.66-2.288c-0.439-0.495-1.074-0.742-1.904-0.742c-0.6,0-1.098,0.07-1.492,0.21
				c-0.396,0.141-0.742,0.298-1.043,0.473c-0.3,0.175-0.572,0.332-0.817,0.473c-0.245,0.14-0.518,0.21-0.817,0.21
				c-0.26,0-0.48-0.067-0.66-0.203c-0.18-0.135-0.325-0.292-0.436-0.472L329.304,50.439z M337.793,57.114
				c-1.07,0.051-1.97,0.143-2.699,0.277c-0.73,0.136-1.315,0.308-1.756,0.518c-0.439,0.21-0.754,0.455-0.944,0.735
				s-0.285,0.585-0.285,0.915c0,0.65,0.192,1.115,0.577,1.395c0.385,0.28,0.888,0.421,1.508,0.421c0.76,0,1.418-0.138,1.973-0.413
				c0.555-0.274,1.098-0.692,1.627-1.252V57.114z"/>
			<path fill="#FF2455" d="M348.354,50.185c0.311-0.31,0.638-0.598,0.982-0.862c0.346-0.265,0.71-0.49,1.096-0.675
				c0.385-0.186,0.797-0.33,1.236-0.436c0.44-0.104,0.92-0.157,1.44-0.157c0.841,0,1.585,0.143,2.235,0.428
				c0.65,0.284,1.192,0.685,1.627,1.199c0.436,0.516,0.766,1.131,0.99,1.846s0.338,1.502,0.338,2.362v9.795h-3.705V53.89
				c0-0.939-0.215-1.667-0.645-2.183c-0.431-0.515-1.086-0.772-1.966-0.772c-0.64,0-1.239,0.146-1.8,0.435
				c-0.561,0.291-1.09,0.686-1.59,1.186v11.13h-3.705v-15.39h2.266c0.479,0,0.795,0.225,0.944,0.675L348.354,50.185z"/>
		</g>
	</g>
	<g>
		<g>
			<path fill="#FF2455" d="M453.473,93.966c0.62-0.65,1.308-1.167,2.063-1.553c0.756-0.385,1.617-0.577,2.588-0.577
				c0.89,0,1.692,0.175,2.407,0.524c0.715,0.351,1.325,0.854,1.83,1.508c0.505,0.655,0.893,1.447,1.163,2.378
				c0.27,0.93,0.404,1.975,0.404,3.135c0,1.25-0.154,2.385-0.465,3.405c-0.311,1.02-0.752,1.893-1.328,2.617
				c-0.574,0.726-1.267,1.288-2.076,1.688c-0.811,0.399-1.711,0.6-2.701,0.6c-0.479,0-0.914-0.047-1.305-0.143
				c-0.39-0.095-0.75-0.227-1.08-0.397c-0.33-0.17-0.633-0.377-0.907-0.622s-0.538-0.518-0.788-0.817l-0.164,1.035
				c-0.061,0.26-0.163,0.444-0.308,0.555c-0.146,0.11-0.343,0.165-0.593,0.165h-2.445v-22.29h3.705V93.966z M453.473,103.476
				c0.42,0.51,0.878,0.87,1.373,1.08c0.494,0.21,1.018,0.315,1.567,0.315c0.569,0,1.082-0.103,1.538-0.308
				c0.454-0.205,0.842-0.525,1.162-0.96c0.32-0.436,0.564-0.99,0.734-1.665s0.256-1.482,0.256-2.423c0-1.689-0.281-2.912-0.84-3.667
				c-0.561-0.755-1.365-1.133-2.416-1.133c-0.71,0-1.33,0.163-1.859,0.487c-0.53,0.325-1.035,0.783-1.516,1.373V103.476z"/>
			<path fill="#FF2455" d="M470.288,94.746c0.479-0.92,1.05-1.643,1.71-2.168c0.66-0.524,1.439-0.787,2.34-0.787
				c0.71,0,1.279,0.155,1.71,0.465l-0.239,2.775c-0.051,0.18-0.123,0.307-0.219,0.382c-0.095,0.075-0.223,0.112-0.382,0.112
				c-0.149,0-0.372-0.024-0.667-0.074c-0.296-0.05-0.584-0.075-0.863-0.075c-0.41,0-0.775,0.06-1.095,0.18
				c-0.32,0.12-0.607,0.293-0.862,0.518c-0.256,0.225-0.48,0.498-0.676,0.817c-0.194,0.32-0.377,0.686-0.547,1.095v9.48h-3.705
				v-15.39h2.175c0.38,0,0.646,0.067,0.795,0.202c0.15,0.135,0.25,0.378,0.3,0.728L470.288,94.746z"/>
			<path fill="#FF2455" d="M491.242,92.076v15.39h-2.265c-0.49,0-0.8-0.225-0.931-0.675l-0.254-1.23
				c-0.631,0.641-1.326,1.158-2.086,1.553s-1.654,0.593-2.685,0.593c-0.841,0-1.583-0.143-2.228-0.428s-1.188-0.688-1.627-1.207
				c-0.441-0.521-0.773-1.138-0.998-1.853s-0.338-1.503-0.338-2.363v-9.779h3.705v9.779c0,0.94,0.218,1.668,0.652,2.183
				c0.436,0.516,1.088,0.772,1.958,0.772c0.64,0,1.239-0.143,1.8-0.427c0.561-0.285,1.09-0.678,1.59-1.178v-11.13H491.242z"/>
			<path fill="#FF2455" d="M498.367,93.966c0.311-0.31,0.638-0.598,0.982-0.862c0.346-0.265,0.71-0.49,1.096-0.675
				c0.385-0.186,0.797-0.33,1.236-0.436c0.44-0.104,0.92-0.157,1.44-0.157c0.841,0,1.585,0.143,2.235,0.428
				c0.65,0.284,1.192,0.685,1.627,1.199c0.436,0.516,0.766,1.131,0.99,1.846s0.338,1.502,0.338,2.362v9.795h-3.705v-9.795
				c0-0.939-0.215-1.667-0.645-2.183c-0.431-0.515-1.086-0.772-1.966-0.772c-0.64,0-1.239,0.146-1.8,0.435
				c-0.561,0.291-1.09,0.686-1.59,1.186v11.13h-3.705v-15.39h2.266c0.479,0,0.795,0.225,0.944,0.675L498.367,93.966z"/>
			<path fill="#FF2455" d="M518.633,91.836c1.139,0,2.177,0.185,3.111,0.555c0.936,0.37,1.735,0.896,2.4,1.575
				s1.178,1.51,1.537,2.49c0.36,0.979,0.541,2.075,0.541,3.285c0,1.22-0.181,2.319-0.541,3.3c-0.359,0.979-0.872,1.814-1.537,2.505
				c-0.665,0.689-1.465,1.22-2.4,1.59c-0.935,0.37-1.973,0.555-3.111,0.555c-1.15,0-2.195-0.185-3.136-0.555s-1.743-0.9-2.407-1.59
				c-0.666-0.69-1.18-1.525-1.545-2.505c-0.365-0.98-0.548-2.08-0.548-3.3c0-1.21,0.183-2.306,0.548-3.285
				c0.365-0.98,0.879-1.811,1.545-2.49c0.664-0.68,1.467-1.205,2.407-1.575S517.482,91.836,518.633,91.836z M518.633,104.841
				c1.279,0,2.227-0.43,2.842-1.29s0.922-2.12,0.922-3.78c0-1.659-0.307-2.925-0.922-3.795s-1.563-1.305-2.842-1.305
				c-1.301,0-2.264,0.438-2.889,1.313s-0.938,2.138-0.938,3.787c0,1.65,0.313,2.908,0.938,3.772
				C516.369,104.408,517.332,104.841,518.633,104.841z"/>
			<path fill="#FF2455" d="M540.127,109.476v2.4h-11.82v-2.4H540.127z"/>
			<path fill="#FF2455" d="M556.416,85.176v22.29h-2.264c-0.49,0-0.801-0.225-0.931-0.675l-0.315-1.485
				c-0.619,0.71-1.332,1.285-2.137,1.726c-0.806,0.439-1.743,0.659-2.813,0.659c-0.84,0-1.61-0.175-2.311-0.524
				c-0.699-0.351-1.303-0.857-1.807-1.522c-0.506-0.665-0.896-1.487-1.171-2.468c-0.274-0.979-0.412-2.1-0.412-3.36
				c0-1.14,0.155-2.199,0.465-3.18c0.31-0.979,0.755-1.83,1.335-2.55s1.275-1.282,2.085-1.688s1.72-0.607,2.729-0.607
				c0.86,0,1.596,0.135,2.205,0.405c0.61,0.27,1.155,0.635,1.636,1.095v-8.115H556.416z M552.712,96.006
				c-0.421-0.51-0.878-0.87-1.372-1.08c-0.496-0.21-1.028-0.315-1.598-0.315c-0.561,0-1.065,0.105-1.516,0.315
				c-0.449,0.21-0.835,0.527-1.154,0.952c-0.32,0.426-0.565,0.966-0.735,1.62c-0.171,0.655-0.255,1.428-0.255,2.317
				c0,0.9,0.072,1.663,0.217,2.288s0.354,1.135,0.623,1.53c0.27,0.395,0.6,0.68,0.99,0.854c0.39,0.175,0.824,0.263,1.305,0.263
				c0.77,0,1.425-0.16,1.965-0.48c0.54-0.319,1.05-0.774,1.53-1.364V96.006z"/>
			<path fill="#FF2455" d="M564.426,87.591c0,0.32-0.064,0.62-0.195,0.9c-0.129,0.279-0.302,0.524-0.518,0.734
				c-0.215,0.21-0.467,0.378-0.757,0.503s-0.601,0.188-0.931,0.188c-0.319,0-0.621-0.063-0.906-0.188s-0.533-0.293-0.743-0.503
				s-0.378-0.455-0.503-0.734c-0.125-0.28-0.188-0.58-0.188-0.9c0-0.33,0.063-0.64,0.188-0.93s0.293-0.54,0.503-0.75
				s0.458-0.378,0.743-0.503s0.587-0.188,0.906-0.188c0.33,0,0.641,0.063,0.931,0.188s0.542,0.293,0.757,0.503
				c0.216,0.21,0.389,0.46,0.518,0.75C564.361,86.951,564.426,87.261,564.426,87.591z M563.916,92.076v15.39h-3.72v-15.39H563.916z"
				/>
			<path fill="#FF2455" d="M567.336,94.221c1.771-1.62,3.9-2.43,6.391-2.43c0.899,0,1.705,0.147,2.414,0.442
				c0.711,0.295,1.311,0.705,1.801,1.229c0.49,0.525,0.862,1.153,1.117,1.883c0.255,0.73,0.383,1.53,0.383,2.4v9.72h-1.68
				c-0.351,0-0.621-0.053-0.811-0.157c-0.189-0.105-0.34-0.317-0.45-0.638l-0.329-1.11c-0.391,0.351-0.771,0.658-1.141,0.923
				c-0.37,0.265-0.756,0.487-1.155,0.667c-0.399,0.181-0.827,0.317-1.282,0.413c-0.455,0.095-0.957,0.143-1.508,0.143
				c-0.65,0-1.25-0.088-1.8-0.263s-1.024-0.438-1.425-0.787c-0.4-0.351-0.711-0.785-0.93-1.306c-0.221-0.52-0.33-1.125-0.33-1.814
				c0-0.391,0.064-0.777,0.195-1.163c0.129-0.385,0.342-0.752,0.637-1.103c0.295-0.35,0.678-0.68,1.147-0.989
				c0.47-0.311,1.048-0.58,1.732-0.811c0.685-0.229,1.482-0.417,2.393-0.563c0.91-0.145,1.95-0.232,3.12-0.263v-0.899
				c0-1.03-0.221-1.793-0.66-2.288s-1.074-0.742-1.904-0.742c-0.601,0-1.098,0.07-1.493,0.21c-0.396,0.141-0.742,0.298-1.042,0.473
				c-0.301,0.175-0.572,0.332-0.818,0.473c-0.244,0.14-0.518,0.21-0.816,0.21c-0.261,0-0.48-0.067-0.66-0.203
				c-0.181-0.135-0.326-0.292-0.436-0.472L567.336,94.221z M575.826,100.896c-1.07,0.051-1.971,0.143-2.7,0.277
				c-0.729,0.136-1.315,0.308-1.755,0.518s-0.755,0.455-0.945,0.735c-0.189,0.28-0.285,0.585-0.285,0.915
				c0,0.65,0.193,1.115,0.578,1.395c0.385,0.28,0.887,0.421,1.508,0.421c0.76,0,1.417-0.138,1.973-0.413
				c0.555-0.274,1.097-0.692,1.627-1.252V100.896z"/>
			<path fill="#FF2455" d="M593.976,93.605c0,0.261-0.045,0.516-0.135,0.766s-0.21,0.455-0.36,0.614l-7.305,9.631h7.575v2.85h-11.88
				v-1.545c0-0.17,0.039-0.372,0.119-0.607s0.201-0.458,0.36-0.668l7.38-9.734h-7.425v-2.835h11.67V93.605z"/>
		</g>
	</g>
	<g>
		<g>
			<circle fill="#337C98" cx="309.736" cy="429.884" r="43.163"/>
		</g>
		<g>
			<circle fill="#337C98" cx="309.736" cy="272.48" r="43.163"/>
		</g>
	</g>
	<g>
		<g>
			<path fill="#FF2455" d="M28.555,93.966c0.62-0.65,1.307-1.167,2.063-1.553c0.755-0.385,1.617-0.577,2.587-0.577
				c0.89,0,1.692,0.175,2.407,0.524c0.715,0.351,1.325,0.854,1.83,1.508c0.505,0.655,0.893,1.447,1.163,2.378
				c0.27,0.93,0.405,1.975,0.405,3.135c0,1.25-0.155,2.385-0.465,3.405c-0.31,1.02-0.752,1.893-1.328,2.617
				c-0.575,0.726-1.267,1.288-2.077,1.688s-1.71,0.6-2.7,0.6c-0.48,0-0.915-0.047-1.305-0.143c-0.39-0.095-0.75-0.227-1.08-0.397
				c-0.33-0.17-0.633-0.377-0.908-0.622s-0.538-0.518-0.788-0.817l-0.165,1.035c-0.06,0.26-0.163,0.444-0.307,0.555
				c-0.145,0.11-0.343,0.165-0.593,0.165H24.85v-22.29h3.705V93.966z M28.555,103.476c0.42,0.51,0.877,0.87,1.373,1.08
				c0.495,0.21,1.017,0.315,1.567,0.315c0.57,0,1.082-0.103,1.538-0.308c0.455-0.205,0.842-0.525,1.162-0.96
				c0.32-0.436,0.565-0.99,0.735-1.665c0.17-0.675,0.255-1.482,0.255-2.423c0-1.689-0.28-2.912-0.84-3.667
				c-0.561-0.755-1.365-1.133-2.415-1.133c-0.71,0-1.33,0.163-1.86,0.487c-0.53,0.325-1.035,0.783-1.515,1.373V103.476z"/>
			<path fill="#FF2455" d="M45.37,94.746c0.48-0.92,1.05-1.643,1.71-2.168c0.66-0.524,1.44-0.787,2.34-0.787
				c0.71,0,1.28,0.155,1.71,0.465l-0.24,2.775c-0.05,0.18-0.123,0.307-0.218,0.382s-0.223,0.112-0.382,0.112
				c-0.15,0-0.373-0.024-0.667-0.074c-0.295-0.05-0.583-0.075-0.863-0.075c-0.41,0-0.775,0.06-1.095,0.18
				c-0.32,0.12-0.607,0.293-0.863,0.518c-0.255,0.225-0.48,0.498-0.675,0.817c-0.195,0.32-0.377,0.686-0.547,1.095v9.48h-3.705
				v-15.39h2.175c0.38,0,0.645,0.067,0.795,0.202c0.15,0.135,0.25,0.378,0.3,0.728L45.37,94.746z"/>
			<path fill="#FF2455" d="M66.324,92.076v15.39H64.06c-0.49,0-0.8-0.225-0.93-0.675l-0.255-1.23
				c-0.63,0.641-1.325,1.158-2.085,1.553c-0.76,0.395-1.655,0.593-2.685,0.593c-0.84,0-1.583-0.143-2.228-0.428
				s-1.188-0.688-1.627-1.207c-0.44-0.521-0.772-1.138-0.998-1.853s-0.337-1.503-0.337-2.363v-9.779h3.705v9.779
				c0,0.94,0.218,1.668,0.653,2.183c0.435,0.516,1.087,0.772,1.958,0.772c0.64,0,1.24-0.143,1.8-0.427
				c0.56-0.285,1.09-0.678,1.59-1.178v-11.13H66.324z"/>
			<path fill="#FF2455" d="M81.009,95.331c-0.11,0.14-0.217,0.25-0.322,0.33s-0.258,0.12-0.458,0.12
				c-0.19,0-0.375-0.058-0.555-0.173s-0.395-0.245-0.645-0.39c-0.25-0.146-0.547-0.275-0.893-0.391
				c-0.345-0.114-0.772-0.172-1.282-0.172c-0.65,0-1.22,0.117-1.71,0.353c-0.49,0.234-0.898,0.572-1.223,1.012
				c-0.325,0.44-0.568,0.973-0.728,1.598c-0.16,0.625-0.24,1.333-0.24,2.123c0,0.819,0.087,1.55,0.263,2.189
				c0.175,0.641,0.428,1.178,0.757,1.612c0.33,0.436,0.73,0.766,1.2,0.99c0.47,0.226,1,0.338,1.59,0.338s1.067-0.072,1.433-0.218
				c0.365-0.145,0.672-0.305,0.922-0.48c0.25-0.175,0.467-0.334,0.653-0.479c0.185-0.145,0.392-0.218,0.623-0.218
				c0.3,0,0.525,0.115,0.675,0.346l1.065,1.35c-0.41,0.479-0.855,0.883-1.335,1.207c-0.48,0.325-0.978,0.585-1.493,0.78
				s-1.045,0.332-1.59,0.413c-0.545,0.079-1.087,0.119-1.627,0.119c-0.95,0-1.845-0.178-2.685-0.532s-1.575-0.872-2.205-1.553
				c-0.63-0.68-1.127-1.512-1.492-2.497c-0.365-0.985-0.548-2.107-0.548-3.367c0-1.13,0.163-2.178,0.488-3.143
				c0.325-0.965,0.802-1.801,1.432-2.505c0.63-0.705,1.41-1.258,2.34-1.658c0.93-0.399,2-0.6,3.21-0.6
				c1.15,0,2.157,0.185,3.022,0.555c0.865,0.37,1.643,0.9,2.333,1.59L81.009,95.331z"/>
			<path fill="#FF2455" d="M87.024,100.235c0.06,0.791,0.2,1.473,0.42,2.048c0.22,0.575,0.51,1.05,0.87,1.425
				c0.36,0.375,0.787,0.655,1.282,0.84c0.495,0.186,1.042,0.278,1.643,0.278s1.118-0.07,1.552-0.21
				c0.435-0.141,0.815-0.295,1.14-0.466c0.325-0.17,0.61-0.324,0.855-0.465c0.245-0.14,0.482-0.21,0.712-0.21
				c0.31,0,0.54,0.115,0.69,0.346l1.065,1.35c-0.41,0.479-0.87,0.883-1.38,1.207c-0.51,0.325-1.042,0.585-1.597,0.78
				c-0.555,0.195-1.12,0.332-1.695,0.413c-0.575,0.079-1.132,0.119-1.672,0.119c-1.07,0-2.065-0.178-2.985-0.532
				c-0.92-0.354-1.72-0.88-2.4-1.575c-0.68-0.694-1.215-1.555-1.605-2.58c-0.39-1.024-0.585-2.212-0.585-3.563
				c0-1.05,0.17-2.037,0.51-2.962s0.827-1.73,1.462-2.415s1.41-1.228,2.325-1.628c0.915-0.399,1.947-0.6,3.097-0.6
				c0.97,0,1.865,0.155,2.685,0.465c0.82,0.311,1.525,0.763,2.115,1.357c0.59,0.595,1.052,1.325,1.387,2.19s0.503,1.853,0.503,2.962
				c0,0.561-0.06,0.938-0.18,1.133s-0.35,0.292-0.69,0.292H87.024z M94.089,98.001c0-0.48-0.067-0.933-0.203-1.357
				c-0.135-0.425-0.337-0.798-0.607-1.118c-0.27-0.319-0.613-0.572-1.027-0.757c-0.416-0.186-0.898-0.277-1.448-0.277
				c-1.07,0-1.913,0.305-2.527,0.915c-0.615,0.609-1.008,1.475-1.178,2.595H94.089z"/>
			<path fill="#FF2455" d="M111.264,109.476v2.4h-11.82v-2.4H111.264z"/>
			<path fill="#FF2455" d="M136.164,92.076l-4.89,15.39h-2.97c-0.34,0-0.575-0.22-0.705-0.66l-2.76-8.895
				c-0.09-0.301-0.172-0.598-0.248-0.893c-0.075-0.295-0.138-0.593-0.188-0.893c-0.06,0.3-0.127,0.603-0.203,0.907
				c-0.075,0.306-0.157,0.607-0.247,0.907l-2.805,8.865c-0.12,0.44-0.385,0.66-0.795,0.66h-2.85l-4.875-15.39h2.955
				c0.27,0,0.5,0.064,0.69,0.194c0.19,0.131,0.315,0.295,0.375,0.495l2.205,8.22c0.11,0.45,0.208,0.891,0.292,1.32
				c0.085,0.431,0.157,0.86,0.217,1.29c0.11-0.43,0.228-0.859,0.353-1.29c0.125-0.43,0.257-0.87,0.397-1.32l2.55-8.25
				c0.06-0.199,0.177-0.364,0.353-0.494c0.175-0.13,0.387-0.195,0.637-0.195h1.635c0.26,0,0.482,0.065,0.667,0.195
				c0.185,0.13,0.307,0.295,0.367,0.494l2.475,8.25c0.13,0.45,0.252,0.893,0.368,1.328c0.115,0.435,0.227,0.867,0.337,1.297
				c0.13-0.85,0.315-1.725,0.555-2.625l2.265-8.22c0.07-0.2,0.195-0.364,0.375-0.495c0.18-0.13,0.395-0.194,0.645-0.194H136.164z"/>
			<path fill="#FF2455" d="M137.709,94.221c1.77-1.62,3.9-2.43,6.39-2.43c0.9,0,1.705,0.147,2.415,0.442s1.31,0.705,1.8,1.229
				c0.49,0.525,0.862,1.153,1.117,1.883c0.255,0.73,0.383,1.53,0.383,2.4v9.72h-1.68c-0.35,0-0.62-0.053-0.81-0.157
				c-0.19-0.105-0.34-0.317-0.45-0.638l-0.33-1.11c-0.39,0.351-0.771,0.658-1.14,0.923c-0.37,0.265-0.755,0.487-1.155,0.667
				c-0.4,0.181-0.827,0.317-1.282,0.413c-0.455,0.095-0.958,0.143-1.507,0.143c-0.65,0-1.25-0.088-1.8-0.263
				s-1.025-0.438-1.425-0.787c-0.4-0.351-0.71-0.785-0.93-1.306c-0.22-0.52-0.33-1.125-0.33-1.814c0-0.391,0.065-0.777,0.195-1.163
				c0.13-0.385,0.342-0.752,0.637-1.103c0.295-0.35,0.677-0.68,1.147-0.989c0.47-0.311,1.047-0.58,1.732-0.811
				c0.685-0.229,1.482-0.417,2.393-0.563c0.91-0.145,1.95-0.232,3.12-0.263v-0.899c0-1.03-0.22-1.793-0.66-2.288
				s-1.075-0.742-1.905-0.742c-0.6,0-1.098,0.07-1.493,0.21c-0.395,0.141-0.742,0.298-1.042,0.473
				c-0.3,0.175-0.572,0.332-0.817,0.473c-0.245,0.14-0.518,0.21-0.817,0.21c-0.26,0-0.48-0.067-0.66-0.203
				c-0.18-0.135-0.325-0.292-0.435-0.472L137.709,94.221z M146.199,100.896c-1.07,0.051-1.97,0.143-2.7,0.277
				c-0.73,0.136-1.315,0.308-1.755,0.518s-0.755,0.455-0.945,0.735s-0.285,0.585-0.285,0.915c0,0.65,0.192,1.115,0.578,1.395
				c0.385,0.28,0.887,0.421,1.507,0.421c0.76,0,1.417-0.138,1.973-0.413c0.555-0.274,1.097-0.692,1.627-1.252V100.896z"/>
			<path fill="#FF2455" d="M166.839,92.076l-8.385,19.62c-0.11,0.26-0.252,0.457-0.427,0.592c-0.175,0.135-0.442,0.203-0.803,0.203
				h-2.76l2.88-6.181l-6.225-14.234h3.255c0.29,0,0.517,0.069,0.682,0.21c0.165,0.14,0.288,0.3,0.368,0.479l3.27,7.98
				c0.11,0.27,0.203,0.54,0.277,0.81c0.075,0.271,0.147,0.545,0.218,0.825c0.09-0.28,0.18-0.558,0.27-0.833
				c0.09-0.274,0.189-0.547,0.3-0.817l3.09-7.965c0.08-0.2,0.212-0.364,0.397-0.495c0.185-0.13,0.393-0.194,0.623-0.194H166.839z"/>
			<path fill="#FF2455" d="M172.149,93.966c0.31-0.31,0.638-0.598,0.982-0.862c0.345-0.265,0.71-0.49,1.095-0.675
				c0.385-0.186,0.797-0.33,1.237-0.436c0.44-0.104,0.92-0.157,1.44-0.157c0.84,0,1.585,0.143,2.235,0.428
				c0.65,0.284,1.192,0.685,1.627,1.199c0.435,0.516,0.765,1.131,0.99,1.846c0.225,0.715,0.338,1.502,0.338,2.362v9.795h-3.705
				v-9.795c0-0.939-0.215-1.667-0.645-2.183c-0.43-0.515-1.085-0.772-1.965-0.772c-0.64,0-1.24,0.146-1.8,0.435
				c-0.56,0.291-1.09,0.686-1.59,1.186v11.13h-3.705v-15.39h2.265c0.48,0,0.795,0.225,0.945,0.675L172.149,93.966z"/>
			<path fill="#FF2455" d="M188.454,100.235c0.06,0.791,0.2,1.473,0.42,2.048c0.22,0.575,0.51,1.05,0.87,1.425
				c0.36,0.375,0.787,0.655,1.282,0.84c0.495,0.186,1.042,0.278,1.643,0.278s1.118-0.07,1.552-0.21
				c0.435-0.141,0.815-0.295,1.14-0.466c0.325-0.17,0.61-0.324,0.855-0.465c0.245-0.14,0.482-0.21,0.712-0.21
				c0.31,0,0.54,0.115,0.69,0.346l1.065,1.35c-0.41,0.479-0.87,0.883-1.38,1.207c-0.51,0.325-1.042,0.585-1.597,0.78
				c-0.555,0.195-1.12,0.332-1.695,0.413c-0.575,0.079-1.132,0.119-1.672,0.119c-1.07,0-2.065-0.178-2.985-0.532
				c-0.92-0.354-1.72-0.88-2.4-1.575c-0.68-0.694-1.215-1.555-1.605-2.58c-0.39-1.024-0.585-2.212-0.585-3.563
				c0-1.05,0.17-2.037,0.51-2.962s0.827-1.73,1.462-2.415s1.41-1.228,2.325-1.628c0.915-0.399,1.947-0.6,3.097-0.6
				c0.97,0,1.865,0.155,2.685,0.465c0.82,0.311,1.525,0.763,2.115,1.357c0.59,0.595,1.052,1.325,1.387,2.19s0.503,1.853,0.503,2.962
				c0,0.561-0.06,0.938-0.18,1.133s-0.35,0.292-0.69,0.292H188.454z M195.519,98.001c0-0.48-0.067-0.933-0.203-1.357
				c-0.135-0.425-0.337-0.798-0.607-1.118c-0.27-0.319-0.613-0.572-1.027-0.757c-0.416-0.186-0.898-0.277-1.448-0.277
				c-1.07,0-1.913,0.305-2.527,0.915c-0.615,0.609-1.008,1.475-1.178,2.595H195.519z"/>
		</g>
	</g>
	<g>
		
			<line fill="none" stroke="#337C98" stroke-width="10" stroke-linecap="round" stroke-linejoin="round" stroke-miterlimit="10" x1="309.762" y1="190.512" x2="309.544" y2="93.736"/>
		
			<polyline fill="none" stroke="#337C98" stroke-width="10" stroke-linecap="round" stroke-linejoin="round" stroke-miterlimit="10" points="
			321.101,184.186 309.782,196.352 298.371,184.276 		"/>
	</g>
	<g>
		
			<line fill="none" stroke="#337C98" stroke-width="10" stroke-linecap="round" stroke-linejoin="round" stroke-miterlimit="10" x1="221.904" y1="217.178" x2="153.32" y2="148.9"/>
		
			<polyline fill="none" stroke="#337C98" stroke-width="10" stroke-linecap="round" stroke-linejoin="round" stroke-miterlimit="10" points="
			225.449,204.686 226.049,221.293 209.441,220.822 		"/>
	</g>
	<g>
		
			<line fill="none" stroke="#337C98" stroke-width="10" stroke-linecap="round" stroke-linejoin="round" stroke-miterlimit="10" x1="397.465" y1="217.178" x2="466.049" y2="148.9"/>
		
			<polyline fill="none" stroke="#337C98" stroke-width="10" stroke-linecap="round" stroke-linejoin="round" stroke-miterlimit="10" points="
			393.92,204.686 393.32,221.293 409.928,220.822 		"/>
	</g>
	<g>
		
			<line fill="none" stroke="#337C98" stroke-width="10" stroke-linecap="round" stroke-linejoin="round" stroke-miterlimit="10" x1="231.904" y1="473.016" x2="163.32" y2="541.293"/>
		
			<polyline fill="none" stroke="#337C98" stroke-width="10" stroke-linecap="round" stroke-linejoin="round" stroke-miterlimit="10" points="
			235.449,485.508 236.049,468.9 219.441,469.371 		"/>
	</g>
	<g>
		
			<line fill="none" stroke="#337C98" stroke-width="10" stroke-linecap="round" stroke-linejoin="round" stroke-miterlimit="10" x1="387.465" y1="473.016" x2="456.049" y2="541.293"/>
		
			<polyline fill="none" stroke="#337C98" stroke-width="10" stroke-linecap="round" stroke-linejoin="round" stroke-miterlimit="10" points="
			383.92,485.508 383.32,468.9 399.928,469.371 		"/>
	</g>
	<g>
		<g>
			<path fill="#FF2455" d="M466.815,605.076c-0.101,0.16-0.205,0.272-0.315,0.337c-0.109,0.065-0.25,0.098-0.42,0.098
				c-0.18,0-0.373-0.05-0.577-0.15c-0.205-0.1-0.442-0.212-0.713-0.337s-0.577-0.237-0.923-0.338
				c-0.344-0.1-0.752-0.149-1.223-0.149c-0.729,0-1.302,0.155-1.717,0.465s-0.623,0.715-0.623,1.215c0,0.33,0.107,0.607,0.323,0.832
				c0.215,0.226,0.499,0.423,0.854,0.593s0.758,0.322,1.208,0.458c0.45,0.135,0.907,0.282,1.372,0.442s0.923,0.343,1.373,0.547
				c0.449,0.205,0.852,0.466,1.207,0.78c0.355,0.315,0.641,0.692,0.855,1.133s0.322,0.97,0.322,1.59c0,0.74-0.133,1.423-0.397,2.048
				s-0.657,1.165-1.178,1.62s-1.163,0.81-1.927,1.064c-0.766,0.255-1.648,0.383-2.648,0.383c-0.529,0-1.047-0.048-1.553-0.143
				c-0.504-0.096-0.989-0.228-1.455-0.397c-0.465-0.17-0.895-0.37-1.289-0.601c-0.396-0.229-0.742-0.479-1.043-0.75l0.855-1.409
				c0.109-0.17,0.24-0.301,0.39-0.391s0.34-0.135,0.569-0.135c0.23,0,0.448,0.065,0.653,0.195c0.204,0.13,0.442,0.27,0.712,0.42
				c0.271,0.149,0.588,0.29,0.953,0.42s0.827,0.194,1.387,0.194c0.44,0,0.818-0.052,1.133-0.157c0.315-0.104,0.575-0.242,0.78-0.412
				s0.354-0.368,0.45-0.593c0.095-0.225,0.143-0.457,0.143-0.697c0-0.36-0.107-0.655-0.322-0.885c-0.216-0.23-0.5-0.431-0.855-0.601
				s-0.76-0.322-1.215-0.457c-0.455-0.136-0.92-0.282-1.395-0.442c-0.476-0.16-0.941-0.348-1.396-0.563
				c-0.455-0.215-0.86-0.488-1.216-0.818c-0.354-0.329-0.639-0.734-0.854-1.215c-0.215-0.479-0.322-1.06-0.322-1.739
				c0-0.631,0.125-1.23,0.375-1.801c0.25-0.569,0.617-1.067,1.103-1.492c0.484-0.425,1.09-0.765,1.814-1.02
				c0.726-0.256,1.563-0.383,2.514-0.383c1.059,0,2.024,0.175,2.895,0.524c0.869,0.351,1.595,0.811,2.175,1.381L466.815,605.076z"/>
			<path fill="#FF2455" d="M483.87,602.076v15.39h-2.265c-0.49,0-0.801-0.225-0.93-0.675l-0.256-1.23
				c-0.63,0.641-1.324,1.158-2.084,1.553c-0.761,0.395-1.656,0.593-2.686,0.593c-0.84,0-1.582-0.143-2.228-0.428
				s-1.188-0.688-1.628-1.207c-0.439-0.521-0.771-1.138-0.997-1.853s-0.337-1.503-0.337-2.363v-9.779h3.704v9.779
				c0,0.94,0.218,1.668,0.653,2.183c0.435,0.516,1.087,0.772,1.957,0.772c0.64,0,1.24-0.143,1.8-0.427
				c0.56-0.285,1.09-0.678,1.59-1.178v-11.13H483.87z"/>
			<path fill="#FF2455" d="M491.04,604.176c0.63-0.71,1.345-1.285,2.146-1.725c0.8-0.44,1.74-0.66,2.82-0.66
				c0.84,0,1.606,0.175,2.302,0.524c0.694,0.351,1.295,0.858,1.8,1.522c0.505,0.666,0.895,1.485,1.17,2.46
				c0.275,0.976,0.413,2.093,0.413,3.353c0,1.15-0.155,2.216-0.466,3.195c-0.31,0.98-0.752,1.83-1.327,2.55
				c-0.575,0.721-1.271,1.283-2.085,1.688c-0.814,0.405-1.728,0.607-2.737,0.607c-0.86,0-1.595-0.132-2.205-0.397
				c-0.61-0.265-1.155-0.632-1.635-1.103v6.301h-3.705v-20.415h2.265c0.48,0,0.795,0.225,0.945,0.675L491.04,604.176z
				 M491.235,613.476c0.42,0.51,0.878,0.87,1.372,1.08c0.495,0.21,1.033,0.315,1.613,0.315c0.56,0,1.064-0.105,1.515-0.315
				s0.833-0.529,1.147-0.96c0.314-0.43,0.557-0.973,0.728-1.627c0.17-0.655,0.255-1.428,0.255-2.318
				c0-0.899-0.072-1.662-0.218-2.287s-0.353-1.133-0.622-1.522s-0.598-0.675-0.982-0.855c-0.385-0.18-0.822-0.27-1.313-0.27
				c-0.771,0-1.426,0.163-1.965,0.487c-0.541,0.325-1.051,0.783-1.53,1.373V613.476z"/>
			<path fill="#FF2455" d="M507.42,610.235c0.061,0.791,0.199,1.473,0.42,2.048c0.22,0.575,0.51,1.05,0.87,1.425
				s0.787,0.655,1.282,0.84c0.495,0.186,1.043,0.278,1.643,0.278s1.117-0.07,1.553-0.21c0.435-0.141,0.814-0.295,1.14-0.466
				c0.325-0.17,0.61-0.324,0.854-0.465c0.246-0.14,0.482-0.21,0.713-0.21c0.311,0,0.54,0.115,0.69,0.346l1.065,1.35
				c-0.41,0.479-0.871,0.883-1.381,1.207c-0.51,0.325-1.043,0.585-1.598,0.78s-1.119,0.332-1.695,0.413
				c-0.574,0.079-1.132,0.119-1.672,0.119c-1.07,0-2.064-0.178-2.984-0.532c-0.921-0.354-1.721-0.88-2.4-1.575
				c-0.68-0.694-1.215-1.555-1.605-2.58c-0.39-1.024-0.584-2.212-0.584-3.563c0-1.05,0.17-2.037,0.51-2.962s0.826-1.73,1.462-2.415
				s1.41-1.228,2.325-1.628c0.915-0.399,1.947-0.6,3.098-0.6c0.97,0,1.865,0.155,2.685,0.465c0.819,0.311,1.524,0.763,2.115,1.357
				c0.59,0.595,1.052,1.325,1.388,2.19c0.334,0.865,0.502,1.853,0.502,2.962c0,0.561-0.06,0.938-0.18,1.133s-0.35,0.292-0.689,0.292
				H507.42z M514.484,608.001c0-0.48-0.066-0.933-0.202-1.357c-0.135-0.425-0.337-0.798-0.607-1.118
				c-0.271-0.319-0.612-0.572-1.027-0.757c-0.415-0.186-0.897-0.277-1.448-0.277c-1.07,0-1.912,0.305-2.527,0.915
				c-0.615,0.609-1.008,1.475-1.178,2.595H514.484z"/>
			<path fill="#FF2455" d="M524.085,604.746c0.479-0.92,1.05-1.643,1.71-2.168c0.66-0.524,1.439-0.787,2.34-0.787
				c0.71,0,1.279,0.155,1.71,0.465l-0.239,2.775c-0.051,0.18-0.123,0.307-0.219,0.382c-0.095,0.075-0.223,0.112-0.382,0.112
				c-0.149,0-0.372-0.024-0.667-0.074c-0.296-0.05-0.584-0.075-0.863-0.075c-0.41,0-0.775,0.06-1.095,0.18
				c-0.32,0.12-0.607,0.293-0.862,0.518c-0.256,0.225-0.48,0.498-0.676,0.817c-0.194,0.32-0.377,0.686-0.547,1.095v9.48h-3.705
				v-15.39h2.175c0.38,0,0.646,0.067,0.795,0.202c0.15,0.135,0.25,0.378,0.3,0.728L524.085,604.746z"/>
			<path fill="#FF2455" d="M531.779,617.466v-15.39h2.266c0.479,0,0.795,0.225,0.944,0.675l0.239,1.14
				c0.271-0.3,0.553-0.575,0.848-0.825c0.295-0.249,0.61-0.465,0.945-0.645s0.695-0.322,1.08-0.428
				c0.385-0.104,0.808-0.157,1.268-0.157c0.97,0,1.768,0.263,2.393,0.787c0.625,0.525,1.092,1.223,1.402,2.093
				c0.24-0.51,0.54-0.947,0.9-1.313c0.359-0.365,0.755-0.662,1.185-0.893c0.431-0.229,0.888-0.399,1.372-0.51
				c0.485-0.11,0.973-0.165,1.463-0.165c0.85,0,1.605,0.13,2.266,0.39c0.66,0.261,1.215,0.641,1.664,1.141
				c0.451,0.5,0.793,1.109,1.027,1.83c0.235,0.72,0.354,1.545,0.354,2.475v9.795h-3.705v-9.795c0-0.98-0.215-1.718-0.645-2.213
				c-0.431-0.495-1.061-0.742-1.891-0.742c-0.381,0-0.732,0.065-1.058,0.195s-0.61,0.317-0.854,0.563
				c-0.246,0.245-0.438,0.553-0.578,0.922c-0.141,0.37-0.21,0.795-0.21,1.275v9.795h-3.72v-9.795c0-1.03-0.208-1.78-0.623-2.25
				c-0.414-0.47-1.021-0.705-1.822-0.705c-0.54,0-1.043,0.133-1.508,0.397s-0.896,0.628-1.297,1.088v11.265H531.779z"/>
			<path fill="#FF2455" d="M556.545,604.221c1.77-1.62,3.899-2.43,6.389-2.43c0.9,0,1.705,0.147,2.416,0.442
				c0.709,0.295,1.31,0.705,1.8,1.229c0.489,0.525,0.862,1.153,1.117,1.883c0.255,0.73,0.383,1.53,0.383,2.4v9.72h-1.681
				c-0.35,0-0.619-0.053-0.81-0.157c-0.19-0.105-0.34-0.317-0.45-0.638l-0.33-1.11c-0.39,0.351-0.77,0.658-1.14,0.923
				s-0.755,0.487-1.155,0.667c-0.4,0.181-0.827,0.317-1.282,0.413c-0.455,0.095-0.958,0.143-1.507,0.143
				c-0.65,0-1.251-0.088-1.801-0.263s-1.025-0.438-1.425-0.787c-0.4-0.351-0.71-0.785-0.931-1.306c-0.22-0.52-0.33-1.125-0.33-1.814
				c0-0.391,0.065-0.777,0.195-1.163c0.131-0.385,0.343-0.752,0.638-1.103c0.295-0.35,0.677-0.68,1.147-0.989
				c0.471-0.311,1.047-0.58,1.732-0.811c0.686-0.229,1.482-0.417,2.393-0.563c0.91-0.145,1.95-0.232,3.12-0.263v-0.899
				c0-1.03-0.22-1.793-0.66-2.288s-1.075-0.742-1.905-0.742c-0.6,0-1.098,0.07-1.492,0.21c-0.395,0.141-0.742,0.298-1.043,0.473
				c-0.299,0.175-0.572,0.332-0.816,0.473c-0.246,0.14-0.518,0.21-0.818,0.21c-0.26,0-0.479-0.067-0.66-0.203
				c-0.18-0.135-0.324-0.292-0.435-0.472L556.545,604.221z M565.034,610.896c-1.07,0.051-1.97,0.143-2.7,0.277
				c-0.73,0.136-1.314,0.308-1.755,0.518s-0.755,0.455-0.944,0.735c-0.19,0.28-0.285,0.585-0.285,0.915
				c0,0.65,0.191,1.115,0.577,1.395c0.385,0.28,0.888,0.421,1.507,0.421c0.76,0,1.418-0.138,1.973-0.413
				c0.556-0.274,1.098-0.692,1.628-1.252V610.896z"/>
			<path fill="#FF2455" d="M575.594,603.966c0.311-0.31,0.638-0.598,0.982-0.862c0.346-0.265,0.71-0.49,1.096-0.675
				c0.385-0.186,0.797-0.33,1.236-0.436c0.44-0.104,0.92-0.157,1.44-0.157c0.841,0,1.585,0.143,2.235,0.428
				c0.65,0.284,1.192,0.685,1.627,1.199c0.436,0.516,0.766,1.131,0.99,1.846s0.338,1.502,0.338,2.362v9.795h-3.705v-9.795
				c0-0.939-0.215-1.667-0.645-2.183c-0.431-0.515-1.086-0.772-1.966-0.772c-0.64,0-1.239,0.146-1.8,0.435
				c-0.561,0.291-1.09,0.686-1.59,1.186v11.13h-3.705v-15.39h2.266c0.479,0,0.795,0.225,0.944,0.675L575.594,603.966z"/>
		</g>
	</g>
	<g>
		<g>
			<path fill="#FF2455" d="M55.51,605.331c-0.11,0.14-0.217,0.25-0.322,0.33s-0.258,0.12-0.458,0.12
				c-0.19,0-0.375-0.058-0.555-0.173s-0.395-0.245-0.645-0.39c-0.25-0.146-0.547-0.275-0.893-0.391
				c-0.345-0.114-0.772-0.172-1.282-0.172c-0.65,0-1.22,0.117-1.71,0.353c-0.49,0.234-0.898,0.572-1.223,1.012
				c-0.325,0.44-0.568,0.973-0.728,1.598c-0.16,0.625-0.24,1.333-0.24,2.123c0,0.819,0.087,1.55,0.263,2.189
				c0.175,0.641,0.428,1.178,0.757,1.612c0.33,0.436,0.73,0.766,1.2,0.99c0.47,0.226,1,0.338,1.59,0.338s1.067-0.072,1.433-0.218
				c0.365-0.145,0.672-0.305,0.922-0.48c0.25-0.175,0.467-0.334,0.653-0.479c0.185-0.145,0.392-0.218,0.623-0.218
				c0.3,0,0.525,0.115,0.675,0.346l1.065,1.35c-0.41,0.479-0.855,0.883-1.335,1.207c-0.48,0.325-0.978,0.585-1.493,0.78
				s-1.045,0.332-1.59,0.413c-0.545,0.079-1.087,0.119-1.627,0.119c-0.95,0-1.845-0.178-2.685-0.532s-1.575-0.872-2.205-1.553
				c-0.63-0.68-1.127-1.512-1.492-2.497c-0.365-0.985-0.548-2.107-0.548-3.367c0-1.13,0.163-2.178,0.488-3.143
				c0.325-0.965,0.802-1.801,1.432-2.505c0.63-0.705,1.41-1.258,2.34-1.658c0.93-0.399,2-0.6,3.21-0.6
				c1.15,0,2.157,0.185,3.022,0.555c0.865,0.37,1.643,0.9,2.333,1.59L55.51,605.331z"/>
			<path fill="#FF2455" d="M62.695,595.176v22.29H58.99v-22.29H62.695z"/>
			<path fill="#FF2455" d="M66.04,604.221c1.77-1.62,3.9-2.43,6.39-2.43c0.9,0,1.705,0.147,2.415,0.442s1.31,0.705,1.8,1.229
				c0.49,0.525,0.862,1.153,1.117,1.883c0.255,0.73,0.383,1.53,0.383,2.4v9.72h-1.68c-0.35,0-0.62-0.053-0.81-0.157
				c-0.19-0.105-0.34-0.317-0.45-0.638l-0.33-1.11c-0.39,0.351-0.771,0.658-1.14,0.923c-0.37,0.265-0.755,0.487-1.155,0.667
				c-0.4,0.181-0.827,0.317-1.282,0.413c-0.455,0.095-0.958,0.143-1.507,0.143c-0.65,0-1.25-0.088-1.8-0.263
				s-1.025-0.438-1.425-0.787c-0.4-0.351-0.71-0.785-0.93-1.306c-0.22-0.52-0.33-1.125-0.33-1.814c0-0.391,0.065-0.777,0.195-1.163
				c0.13-0.385,0.342-0.752,0.637-1.103c0.295-0.35,0.677-0.68,1.147-0.989c0.47-0.311,1.047-0.58,1.732-0.811
				c0.685-0.229,1.482-0.417,2.393-0.563c0.91-0.145,1.95-0.232,3.12-0.263v-0.899c0-1.03-0.22-1.793-0.66-2.288
				s-1.075-0.742-1.905-0.742c-0.6,0-1.098,0.07-1.493,0.21c-0.395,0.141-0.742,0.298-1.042,0.473
				c-0.3,0.175-0.572,0.332-0.817,0.473c-0.245,0.14-0.518,0.21-0.817,0.21c-0.26,0-0.48-0.067-0.66-0.203
				c-0.18-0.135-0.325-0.292-0.435-0.472L66.04,604.221z M74.53,610.896c-1.07,0.051-1.97,0.143-2.7,0.277
				c-0.73,0.136-1.315,0.308-1.755,0.518s-0.755,0.455-0.945,0.735s-0.285,0.585-0.285,0.915c0,0.65,0.192,1.115,0.578,1.395
				c0.385,0.28,0.887,0.421,1.507,0.421c0.76,0,1.417-0.138,1.973-0.413c0.555-0.274,1.097-0.692,1.627-1.252V610.896z"/>
			<path fill="#FF2455" d="M85.12,604.746c0.48-0.92,1.05-1.643,1.71-2.168c0.66-0.524,1.44-0.787,2.34-0.787
				c0.71,0,1.28,0.155,1.71,0.465l-0.24,2.775c-0.05,0.18-0.123,0.307-0.218,0.382s-0.223,0.112-0.382,0.112
				c-0.15,0-0.373-0.024-0.667-0.074c-0.295-0.05-0.583-0.075-0.863-0.075c-0.41,0-0.775,0.06-1.095,0.18
				c-0.32,0.12-0.607,0.293-0.863,0.518c-0.255,0.225-0.48,0.498-0.675,0.817c-0.195,0.32-0.377,0.686-0.547,1.095v9.48h-3.705
				v-15.39h2.175c0.38,0,0.645,0.067,0.795,0.202c0.15,0.135,0.25,0.378,0.3,0.728L85.12,604.746z"/>
			<path fill="#FF2455" d="M96.52,595.176v12.765h0.69c0.25,0,0.447-0.032,0.592-0.097c0.145-0.065,0.292-0.198,0.442-0.397
				l3.825-4.726c0.16-0.21,0.337-0.37,0.533-0.479c0.195-0.11,0.447-0.165,0.757-0.165h3.39l-4.785,5.715
				c-0.34,0.45-0.71,0.795-1.11,1.035c0.21,0.149,0.397,0.325,0.563,0.524c0.165,0.2,0.322,0.415,0.472,0.646l5.13,7.47h-3.345
				c-0.29,0-0.54-0.047-0.75-0.143c-0.21-0.095-0.385-0.268-0.525-0.518l-3.93-5.835c-0.14-0.229-0.285-0.38-0.435-0.45
				c-0.15-0.069-0.375-0.104-0.675-0.104h-0.84v7.05h-3.705v-22.29H96.52z"/>
			<path fill="#FF2455" d="M119.918,619.476v2.4h-11.82v-2.4H119.918z"/>
			<path fill="#FF2455" d="M126.548,595.176v12.765h0.69c0.25,0,0.447-0.032,0.592-0.097c0.145-0.065,0.292-0.198,0.442-0.397
				l3.825-4.726c0.16-0.21,0.337-0.37,0.533-0.479c0.195-0.11,0.447-0.165,0.757-0.165h3.39l-4.785,5.715
				c-0.34,0.45-0.71,0.795-1.11,1.035c0.21,0.149,0.397,0.325,0.563,0.524c0.165,0.2,0.322,0.415,0.472,0.646l5.13,7.47h-3.345
				c-0.29,0-0.54-0.047-0.75-0.143c-0.21-0.095-0.385-0.268-0.525-0.518l-3.93-5.835c-0.14-0.229-0.285-0.38-0.435-0.45
				c-0.15-0.069-0.375-0.104-0.675-0.104h-0.84v7.05h-3.705v-22.29H126.548z"/>
			<path fill="#FF2455" d="M140.949,610.235c0.06,0.791,0.2,1.473,0.42,2.048c0.22,0.575,0.51,1.05,0.87,1.425
				c0.36,0.375,0.787,0.655,1.282,0.84c0.495,0.186,1.042,0.278,1.643,0.278s1.118-0.07,1.552-0.21
				c0.435-0.141,0.815-0.295,1.14-0.466c0.325-0.17,0.61-0.324,0.855-0.465c0.245-0.14,0.482-0.21,0.712-0.21
				c0.31,0,0.54,0.115,0.69,0.346l1.065,1.35c-0.41,0.479-0.87,0.883-1.38,1.207c-0.51,0.325-1.042,0.585-1.597,0.78
				c-0.555,0.195-1.12,0.332-1.695,0.413c-0.575,0.079-1.132,0.119-1.672,0.119c-1.07,0-2.065-0.178-2.985-0.532
				c-0.92-0.354-1.72-0.88-2.4-1.575c-0.68-0.694-1.215-1.555-1.605-2.58c-0.39-1.024-0.585-2.212-0.585-3.563
				c0-1.05,0.17-2.037,0.51-2.962s0.827-1.73,1.462-2.415s1.41-1.228,2.325-1.628c0.915-0.399,1.947-0.6,3.097-0.6
				c0.97,0,1.865,0.155,2.685,0.465c0.82,0.311,1.525,0.763,2.115,1.357c0.59,0.595,1.052,1.325,1.387,2.19s0.503,1.853,0.503,2.962
				c0,0.561-0.06,0.938-0.18,1.133s-0.35,0.292-0.69,0.292H140.949z M148.014,608.001c0-0.48-0.067-0.933-0.203-1.357
				c-0.135-0.425-0.337-0.798-0.607-1.118c-0.27-0.319-0.613-0.572-1.027-0.757c-0.416-0.186-0.898-0.277-1.448-0.277
				c-1.07,0-1.913,0.305-2.527,0.915c-0.615,0.609-1.008,1.475-1.178,2.595H148.014z"/>
			<path fill="#FF2455" d="M157.583,603.966c0.31-0.31,0.638-0.598,0.982-0.862c0.345-0.265,0.71-0.49,1.095-0.675
				c0.385-0.186,0.797-0.33,1.237-0.436c0.44-0.104,0.92-0.157,1.44-0.157c0.84,0,1.585,0.143,2.235,0.428
				c0.65,0.284,1.192,0.685,1.627,1.199c0.435,0.516,0.765,1.131,0.99,1.846c0.225,0.715,0.338,1.502,0.338,2.362v9.795h-3.705
				v-9.795c0-0.939-0.215-1.667-0.645-2.183c-0.43-0.515-1.085-0.772-1.965-0.772c-0.64,0-1.24,0.146-1.8,0.435
				c-0.56,0.291-1.09,0.686-1.59,1.186v11.13h-3.705v-15.39h2.265c0.48,0,0.795,0.225,0.945,0.675L157.583,603.966z"/>
			<path fill="#FF2455" d="M175.958,617.706c-1.34,0-2.368-0.378-3.083-1.133s-1.072-1.797-1.072-3.127v-8.596h-1.575
				c-0.2,0-0.37-0.064-0.51-0.194c-0.14-0.13-0.21-0.325-0.21-0.585v-1.471l2.475-0.404l0.78-4.2c0.05-0.2,0.145-0.355,0.285-0.465
				c0.14-0.11,0.32-0.165,0.54-0.165h1.92v4.845h4.11v2.64h-4.11v8.34c0,0.48,0.118,0.855,0.353,1.125
				c0.235,0.271,0.558,0.405,0.968,0.405c0.23,0,0.422-0.027,0.578-0.082c0.155-0.056,0.29-0.113,0.405-0.173
				c0.115-0.06,0.217-0.117,0.308-0.173c0.09-0.055,0.18-0.082,0.27-0.082c0.11,0,0.2,0.027,0.27,0.082
				c0.07,0.056,0.145,0.138,0.225,0.248l1.11,1.8c-0.54,0.45-1.16,0.79-1.86,1.02C177.434,617.591,176.708,617.706,175.958,617.706z
				"/>
		</g>
	</g>
</g>
</svg>
